<svg xmlns="http://www.w3.org/2000/svg" xmlns:xlink="http://www.w3.org/1999/xlink" version="1.1" width="546" height="237" style="" xml:space="preserve"><rect id="backgroundrect" width="100%" height="100%" x="0" y="0" fill="none" stroke=""/>
	<g>
		<g>
			<path d="M174.03889349985124,10.290950051433473 c-4.63172250699997,-2.4057927889823922 -22.222529591083525,-10.290950071334839 -54.40211979579926,-10.290950071334839 C48.08803904914856,-1.9901360559515524e-8 0.00000739097594950064,48.32851154530706 0.00000739097594950064,120.2806959616012 c0,70.67128110980987 44.381461190223696,116.33364560651779 113.04443696069717,116.33364560651779 c28.85460768842697,0 50.536554347991945,-5.897720034122467 60.32269535827637,-10.948791800498963 c1.51542090177536,-0.7880188689231874 2.3024460520744325,-2.5141081190109253 1.8999900093078614,-4.164674753665924 l-5.606560477256775,-23.04731604909897 c-0.27029146575927737,-1.0980590796470642 -0.9986872172355652,-1.9973744344711304 -2.02122368144989,-2.466409625053406 c-1.02154274559021,-0.48195353269577057 -2.1822060985565193,-0.48195353269577057 -3.1808933157920842,0.011924623489379926 c-11.241938794612885,5.461477558135987 -28.666794868469236,8.862976408481599 -45.4884637374878,8.862976408481599 c-50.88932445955276,0 -81.27028395462037,-31.987802510261535 -81.27028395462037,-85.562154692173 c0,-55.00928187513351 30.986134137153623,-87.85466355800628 82.91190712165833,-87.85466355800628 c21.873734354019167,0 36.21408781862259,5.533025299072265 42.80442973375321,8.834158568382264 c0.9748379702568054,0.4938781561851513 2.1176143879890446,0.5167336845397951 3.1043769817352302,0.09639070653915464 c0.9986872172355652,-0.41934925937652623 1.7618631205558781,-1.2679849643707275 2.0937651410102847,-2.3143706755638123 l7.236259020805359,-23.38021178817749 C176.39102548313141,12.967034306175155 175.62784957981108,11.127661132938307 174.03889349985124,10.290950051433473 z" id="svg_3"/>
			<path d="M372.88199018526075,3.62111064637367 h-28.97981623506546 c-2.0450729284286497,0 -3.7006081562042237,1.6535477905273441 -3.7006081562042237,3.697627000331879 v89.17332817220688 H240.23446592664718 v-89.17332817220688 c0,-2.044079209804535 -1.6535477905273441,-3.697627000331879 -3.697627000331879,-3.697627000331879 h-28.97782879781723 c-2.04706036567688,0 -3.7006081562042237,1.6535477905273441 -3.7006081562042237,3.697627000331879 v221.9768662548065 c0,2.044079209804535 1.6535477905273441,3.7006081562042237 3.7006081562042237,3.7006081562042237 h28.97782879781723 c2.044079209804535,0 3.697627000331879,-1.6565289463996897 3.697627000331879,-3.7006081562042237 V128.9270417100257 h99.9670998673439 V229.30156621325676 c0,2.044079209804535 1.6555352277755748,3.6946458444595343 3.7006081562042237,3.6946458444595343 h28.97981623506546 c2.03314830493927,0 3.7016018748283392,-1.6505666346549988 3.7016018748283392,-3.6946458444595343 V7.318737646705552 C376.5885606532097,5.274658436901 374.9151384902001,3.62111064637367 372.88199018526075,3.62111064637367 z" id="svg_4"/>
			<path d="M541.8201185965538,3.62111064637367 H422.2678183665276 c-2.0450729284286497,0 -3.7006081562042237,1.6535477905273441 -3.7006081562042237,3.697627000331879 v221.9768662548065 c0,2.044079209804535 1.6555352277755748,3.7006081562042237 3.7006081562042237,3.7006081562042237 H451.24763460159306 c2.0450729284286497,0 3.7016018748283392,-1.6565289463996897 3.7016018748283392,-3.7006081562042237 v-96.75043268108368 h79.95161934041977 c2.044079209804535,0 3.7006081562042237,-1.6565289463996897 3.7006081562042237,-3.7006081562042237 v-23.703170341014864 c0,-2.0589849891662597 -1.6565289463996897,-3.712532779693604 -3.7006081562042237,-3.712532779693604 h-79.95161934041977 v-66.37444177913666 h86.87088212013245 c2.044079209804535,0 3.7006081562042237,-1.6446043229103093 3.7006081562042237,-3.688683532714844 v-24.04699698495865 C545.5256953458786,5.274658436901 543.8632040877343,3.62111064637367 541.8201185965538,3.62111064637367 z" id="svg_5"/>
		</g>
	</g>
</svg>