<?xml version="1.0" encoding="UTF-8"?>
<svg width="32px" height="20px" viewBox="0 0 32 20" version="1.1" xmlns="http://www.w3.org/2000/svg" xmlns:xlink="http://www.w3.org/1999/xlink">
    <!-- Generator: Sketch 52.5 (67469) - http://www.bohemiancoding.com/sketch -->
    <title>Group</title>
    <desc>Created with Sketch.</desc>
    <g id="design" stroke="none" stroke-width="1" fill="none" fill-rule="evenodd">
        <g id="tjs-job-mobile" transform="translate(-253.000000, -219.000000)">
            <g id="Group" transform="translate(253.000000, 219.000000)">
                <rect id="Rectangle" stroke="#9393A5" stroke-width="2" fill-rule="nonzero" x="1" y="1" width="30" height="18" rx="3"></rect>
                <path d="M10.0976562,11.3154297 L11.7041016,11.9375 C11.4534493,13.0585994 11.0364613,13.8777643 10.453125,14.3950195 C9.86978875,14.9122747 9.15202249,15.1708984 8.29980469,15.1708984 C7.22883579,15.1708984 6.36068041,14.7584677 5.6953125,13.9335938 C4.92968367,12.981115 4.546875,11.6959716 4.546875,10.078125 C4.546875,8.36913208 4.93196229,7.03158035 5.70214844,6.06542969 C6.37207366,5.22688383 7.27212977,4.80761719 8.40234375,4.80761719 C9.32292127,4.80761719 10.0930959,5.12206717 10.7128906,5.75097656 C11.1549501,6.19759338 11.4785146,6.86067269 11.6835938,7.74023438 L10.0429688,8.21875 C9.93815052,7.67642958 9.72965651,7.26058087 9.41748047,6.97119141 C9.10530443,6.68180194 8.73730681,6.53710938 8.31347656,6.53710938 C7.70735374,6.53710938 7.21289254,6.80142965 6.83007812,7.33007812 C6.44726371,7.8587266 6.25585938,8.73143923 6.25585938,9.94824219 C6.25585938,11.2106183 6.44270646,12.1083958 6.81640625,12.6416016 C7.19010604,13.1748074 7.67545274,13.4414062 8.27246094,13.4414062 C8.70996313,13.4414062 9.08821455,13.2716488 9.40722656,12.9321289 C9.72623857,12.592609 9.9563795,12.0537146 10.0976562,11.3154297 Z M13.1259766,15 L13.1259766,4.97851562 L14.7802734,4.97851562 L14.7802734,8.92285156 L18.0341797,8.92285156 L18.0341797,4.97851562 L19.6953125,4.97851562 L19.6953125,15 L18.0341797,15 L18.0341797,10.6181641 L14.7802734,10.6181641 L14.7802734,15 L13.1259766,15 Z M21.4179688,15 L21.4179688,4.97851562 L27.0507812,4.97851562 L27.0507812,6.67382812 L23.0722656,6.67382812 L23.0722656,9.04589844 L26.5107422,9.04589844 L26.5107422,10.7412109 L23.0722656,10.7412109 L23.0722656,15 L21.4179688,15 Z" id="CHF" fill="#9393A5"></path>
            </g>
        </g>
    </g>
</svg>