<?xml version="1.0" encoding="UTF-8"?>
<svg width="178px" height="178px" viewBox="0 0 178 178" version="1.1" xmlns="http://www.w3.org/2000/svg" xmlns:xlink="http://www.w3.org/1999/xlink">
    <!-- Generator: Sketch 52.5 (67469) - http://www.bohemiancoding.com/sketch -->
    <title>bg</title>
    <desc>Created with Sketch.</desc>
    <defs>
        <polygon id="path-1" points="0.103274514 0.0592310273 46.8862102 0.0592310273 46.8862102 34.6147872 0.103274514 34.6147872"></polygon>
        <polygon id="path-3" points="0.104932901 0.179507169 54.1116087 0.179507169 54.1116087 27.5391492 0.104932901 27.5391492"></polygon>
        <polygon id="path-5" points="0.113435067 0.184796434 93.4405519 0.184796434 93.4405519 17.0479355 0.113435067 17.0479355"></polygon>
        <polygon id="path-7" points="0.139640972 0.188748934 41.422137 0.188748934 41.422137 7.64976367 0.139640972 7.64976367"></polygon>
    </defs>
    <g id="bg" stroke="none" stroke-width="1" fill="none" fill-rule="evenodd">
        <rect fill="#F3F3F3" opacity="0.81" x="0" y="0" width="178" height="178"></rect>
        <g id="Group-3" opacity="0.9">
            <g id="Group-2">
                <g id="Group">
                    <g id="Group-57">
                        <path d="M2.11585906,11.1520222 C2.12569447,11.1485252 2.13509275,11.1450281 2.14449104,11.1415311 L4.13102538,11.1386897 C9.69043649,11.1301657 15.4351904,11.1218603 21.0903329,11.1504922 C21.9447022,12.7392389 23.5146523,13.7236542 25.201753,13.7236542 C25.7566887,13.7236542 26.3037561,13.6180874 26.8269999,13.4102324 C27.9749016,12.9547436 28.8959332,12.0365534 29.3538262,10.891056 C29.8497494,9.64982717 29.7784973,8.26128578 29.1586479,7.08212935 C28.5468854,5.91827245 27.4835682,5.0894752 26.242558,4.80861959 C24.0486058,4.31116639 21.9960649,5.31415969 21.1198391,7.30790666 L21.1130636,7.30790666 C17.3441343,7.29413709 13.5028601,7.29348139 9.78791633,7.29260714 L8.34014392,7.29238857 C6.47709862,7.29238857 4.61317906,7.29238857 2.74969662,7.29107718 C2.53419185,7.29085862 2.29857913,7.2742477 2.07017905,7.25807392 C1.94887565,7.24933133 1.8304136,7.24102587 1.71479288,7.2346875 L1.06019168,7.19862433 L0.98609825,8.54039287 L0.531702288,8.70737629 L1.50081806,11.3738653 L2.11585906,11.1520222 Z" id="Fill-1" fill="#F0F0F0"></path>
                        <path d="M175.282248,151.594558 L169.461215,151.59281 C160.763871,151.590187 151.771246,151.587345 142.92637,151.604175 C142.510442,151.604175 142.353731,151.52112 142.121178,151.287256 C138.943685,148.093589 135.621283,144.770095 132.689894,141.837831 L132.444446,141.592383 C129.186521,138.332928 125.817565,134.96266 122.515708,131.641352 C121.634018,130.754416 120.650696,130.341547 119.413401,130.341547 C106.478306,130.362311 93.3228985,130.361218 80.6017787,130.360563 L71.953393,130.360125 L71.9601685,117.651464 C71.9662883,107.258495 71.9724081,96.8659631 71.9743752,86.4732127 C71.9756866,79.0776397 71.9739381,71.8407447 71.9387491,64.6130295 C71.9367821,64.1802714 72.0320763,63.9603953 72.3634203,63.6327669 C76.3327734,59.7099681 80.4968676,55.5484966 84.739208,51.2639733 C84.7545075,51.2486738 84.7680585,51.2351228 84.7800796,51.2233203 C84.7896964,51.2268173 84.7997504,51.23097 84.8104601,51.2351228 C86.7537186,51.9872038 88.9924766,51.2069279 90.1349142,49.3786344 C91.2393215,47.6113204 90.9564988,45.2639358 89.4621721,43.7969297 C87.9658783,42.3270822 85.6779433,42.0763886 83.897734,43.1866971 C82.0720632,44.3254191 81.2948473,46.6124798 82.0781831,48.5216423 C82.0637578,48.5365047 82.0473654,48.552897 82.029006,48.5712565 C79.9908904,50.5947282 77.8819598,52.7036588 76.0215373,54.5645185 L75.9537823,54.632055 C73.7888991,56.7969381 71.5503597,59.0356961 69.3402337,61.2254955 C68.4393101,62.1181137 68.035184,63.0837324 68.0677502,64.2644188 C68.1285111,66.4387002 68.1252327,68.6903535 68.0574776,70.9564321 C68.0522321,71.1400264 67.9348628,71.4127951 67.8426285,71.5069965 C66.3692841,73.0150928 64.8614064,74.5255932 63.4029243,75.986261 C61.931984,77.459824 60.4109924,78.9834384 58.9199442,80.5098941 C58.3365951,81.1072313 57.9058041,82.1469435 57.895313,82.9818606 C57.8557528,86.173342 57.859687,89.4137819 57.863184,92.567233 C57.8642768,93.4596326 57.8653696,94.3524693 57.8653696,95.2450874 L57.866681,103.908117 C57.868211,112.175544 57.8693038,120.442316 57.8684295,128.709962 C55.7997149,126.632068 53.843561,124.667827 51.8233677,122.696592 C51.523497,122.403716 51.4415352,122.192364 51.4424095,121.712177 C51.4607689,109.5296 51.4609875,97.1433216 51.4614246,85.164666 L51.4618617,74.2069259 L0.974077193,74.2069259 L0.985879686,78.1874258 L47.5725033,78.1874258 L47.5727219,86.0570656 C47.5733776,97.8505969 47.5740333,110.045413 47.5530511,122.057072 C47.5508654,123.313819 47.9622041,124.304135 48.8476097,125.172711 C52.1923049,128.45446 54.9562738,131.223893 57.5458281,133.888634 C57.673907,134.020428 57.8264651,134.37647 57.8389233,134.655358 C57.8985915,136.004995 57.8881004,137.399219 57.8778278,138.763937 C57.8734565,139.303792 57.8695224,139.843428 57.8695224,140.383064 L57.8695224,144.239638 L72.1343645,144.240294 C85.2139305,144.241605 98.7363084,144.242042 112.035969,144.214285 C112.725103,144.214285 113.106717,144.374055 113.548437,144.847029 C114.974134,146.374359 116.480045,147.844425 117.765205,149.080846 C117.865963,149.177888 117.926724,149.242584 117.963443,149.284985 C117.527188,150.517034 117.616799,151.846563 118.209765,152.933048 C118.855843,154.117669 119.930088,154.923079 121.234701,155.201531 C122.525544,155.478015 123.855728,155.185357 124.884512,154.401366 C126.470199,153.193359 127.086333,151.134042 126.417525,149.276243 C125.718555,147.335825 123.962169,146.177433 121.941539,146.320374 C121.471625,146.353814 121.028157,146.462441 120.625124,146.570849 C120.316073,146.260487 120.00593,145.950125 119.694694,145.639108 C118.445597,144.390011 117.154098,143.098512 115.917022,141.789091 C115.081668,140.905434 113.901856,140.398364 112.673522,140.398364 C99.1493957,140.419565 85.3861594,140.420002 72.0777563,140.418472 L61.7494825,140.418035 L61.7490454,137.757884 C61.7457669,119.908581 61.7424884,101.451669 61.7667491,83.3048992 C61.7715575,83.2242488 61.8565792,83.0332233 61.9129689,82.9753036 C63.9622313,80.8783941 66.0694133,78.7755834 68.1197686,76.7330965 L68.1197686,134.181729 L78.9828701,134.181947 C91.3394241,134.182603 105.34483,134.184352 119.006652,134.165336 C119.461485,134.165336 119.693601,134.259538 120.001121,134.568588 C123.251834,137.837879 126.52178,141.109792 129.683974,144.274171 L129.72878,144.319196 C132.972716,147.5651 136.32681,150.921816 139.616208,154.230885 C140.377469,154.99608 141.432918,155.435177 142.520714,155.435177 C150.299431,155.418128 158.209287,155.417691 165.878721,155.417254 L167.209125,155.417254 C169.870587,155.417036 172.53183,155.416817 175.192636,155.415724 C175.520702,155.415724 175.823851,155.390371 176.125908,155.365017 C176.243933,155.354745 176.361739,155.344909 176.479327,155.337041 L177.806451,155.249615 L177.806451,151.66428 L176.085036,151.613792 C175.817294,151.604175 175.549553,151.594558 175.282248,151.594558" id="Fill-3" fill="#F0F0F0"></path>
                        <path d="M0.996764207,152.680977 L0.966602281,152.680977 L0.966602281,155.522318 L36.8811499,155.522318 C36.886614,162.341536 36.8861769,169.160973 36.8837727,175.980846 C36.8809313,176.0062 36.8752487,176.037673 36.8704402,176.069583 C36.8603863,176.131874 36.8507694,176.193947 36.8429011,176.256456 L36.6448815,177.852416 L40.7663556,177.852416 L40.7663556,151.653505 L0.996764207,151.653505 L0.996764207,152.680977 Z" id="Fill-5" fill="#F0F0F0"></path>
                        <path d="M61.6593683,64.6152151 L61.6593683,51.1339273 L50.9046748,51.1339273 C38.6110675,51.1341459 25.8991273,51.1343644 13.3906709,51.148134 C13.2402984,51.148134 13.1528725,51.1435442 13.1026026,51.1385172 C13.0914558,51.116005 13.076812,51.0847503 13.0580155,51.0410373 C12.2460477,49.1519828 10.0164694,48.1570764 7.87234994,48.7257817 C5.94307954,49.2370045 4.51694503,51.1332716 4.55475672,53.1370726 C4.59453549,55.247096 6.01476876,56.9873079 8.08829184,57.4674945 C10.1967853,57.9562051 12.3030931,56.9429393 13.0945158,55.0576004 C13.103914,55.0357439 13.1120009,55.0167288 13.118995,55.000555 C13.1644564,54.9979322 13.2295887,54.9959651 13.3222601,54.995528 C25.7935606,55.0138874 38.7852635,55.0123575 50.2467951,55.0114832 L57.8663969,55.0108275 C57.8653041,55.2650183 57.8639927,55.5187718 57.8626813,55.7733997 C57.8539387,57.5053062 57.8458518,59.1441041 57.8873791,60.809567 C44.0238217,60.7868362 29.92946,60.7866177 16.297144,60.7863991 L2.76012216,60.7857434 C2.56057261,60.7857434 2.34047798,60.7671654 2.103991,60.7470575 C1.97700492,60.7361292 1.85089311,60.7256381 1.7265298,60.7175512 L1.07258429,60.674494 L0.885274365,63.5077479 L0.974230189,63.5138677 L0.974230189,64.6152151 L61.6593683,64.6152151 Z" id="Fill-7" fill="#F0F0F0"></path>
                        <path d="M51.0553314,142.618041 C51.0459332,142.506355 51.0358792,142.386581 51.026918,142.255005 L50.9353394,140.93094 L42.7120621,140.930285 C36.2897576,140.928755 29.0122096,140.927006 22.0362808,140.948426 C21.7163021,140.948426 21.4033175,140.815101 21.1779773,140.582548 C19.127185,138.466624 16.9262387,136.273983 14.6354623,134.065824 C14.0407478,133.492966 13.1433212,133.117472 12.2931047,133.086436 C10.9526475,133.036821 9.60301062,133.045346 8.29730524,133.052558 L8.16463648,133.053432 C7.70215363,133.056274 7.23988934,133.059115 6.77784361,133.059115 L0.978448487,133.059115 L0.978448487,134.19893 L0.865450549,134.205924 L1.05647608,137.04639 L1.71151441,137.001585 C1.82473091,136.993935 1.93882167,136.984318 2.06099933,136.973827 C2.26863577,136.956123 2.46490685,136.939731 2.63866577,136.939294 C3.26070084,136.938201 3.88295447,136.936234 4.50630093,136.934267 L4.58935551,136.934048 C6.94570128,136.926836 9.38226029,136.92006 11.7692051,136.963773 C11.929413,136.966833 12.2091758,137.079831 12.323048,137.187802 C13.5773907,138.376794 14.8114069,139.593106 16.0952558,140.867338 L0.149651234,140.867338 L0.275544488,144.890021 L47.2831237,144.890021 L47.2829051,149.210608 C47.282468,157.884784 47.2820309,166.55896 47.2835608,175.233792 C47.2837794,175.540001 47.2973304,175.841839 47.3089143,176.107832 C47.314597,176.231758 47.3198426,176.355903 47.3242139,176.480267 L47.3709867,177.852416 L50.9215699,177.852416 L51.0336935,176.553923 C51.0395948,176.485075 51.0472446,176.416664 51.0553314,176.343664 C51.0758765,176.156572 51.1014486,175.924019 51.1014486,175.67573 C51.1049456,164.929342 51.1053828,154.183391 51.1021043,143.43744 C51.1021043,143.165109 51.080685,142.914633 51.0581728,142.649952 L51.0553314,142.618041 Z" id="Fill-9" fill="#F0F0F0"></path>
                        <path d="M1.00659962,22.3357581 L1.10145669,23.52322 L1.7554022,23.4705459 C1.86096894,23.4620219 1.95735596,23.4526236 2.05745858,23.4427882 C2.18772313,23.4298929 2.29110422,23.4198389 2.36323056,23.4198389 C3.77778115,23.4189647 5.19189461,23.4187461 6.60644519,23.4185275 L7.45513183,23.4185275 C11.9280579,23.4185275 16.551138,23.4185275 21.1012174,23.3966711 C21.1108342,23.4169976 21.1208882,23.4381983 21.1309422,23.4598362 C21.8766849,25.0420259 23.4269641,26.0249113 25.1767929,26.0249113 C25.5614668,26.0249113 25.9489819,25.9761714 26.3281916,25.8806586 C28.2703574,25.3910737 29.6792253,23.556879 29.6779139,21.5192005 C29.6763839,19.4054615 28.2954923,17.6361804 26.2420772,17.1162151 C24.1569701,16.5864143 22.0119764,17.617821 21.1434004,19.5674179 C21.1372806,19.5811875 21.1313793,19.5938643 21.1263523,19.6054482 C21.1125828,19.6054482 21.0977204,19.6052296 21.0811095,19.6050111 C17.0177736,19.5833731 12.8803442,19.582936 8.87929926,19.5827175 L7.85729083,19.5827175 C6.14286951,19.5831546 4.42932245,19.5835917 2.71555682,19.5822803 C2.52103426,19.5820618 2.30924509,19.5678551 2.06423409,19.5512441 C1.94708342,19.5435944 1.82862137,19.5352889 1.70797366,19.5289505 L1.05337246,19.4944173 L0.990207266,20.6796936 L0.875460811,20.6884362 L0.943871555,21.5478325 L0.901907137,22.3300754 L1.00659962,22.3357581 Z" id="Fill-11" fill="#F0F0F0"></path>
                        <polygon id="Fill-13" fill="#F0F0F0" points="0.96240584 164.240361 0.963717228 164.240361 0.962842969 165.005337 24.5385404 165.005337 24.5385404 170.290886 0.30343334 170.290886 6.55694029e-05 174.23882 28.4241832 174.23882 28.4241832 161.065271 0.967432827 161.065271"></polygon>
                        <path d="M49.9798184,25.927344 C50.867191,25.9181643 51.5974156,25.3249798 51.9541131,24.9722164 C54.6280334,22.3238682 57.7344931,19.2386092 60.7646738,16.1369579 C61.3342533,15.5540459 61.7095289,14.6146549 61.7204571,13.7438933 C61.7532418,11.1265813 61.7514933,8.46970906 61.7499633,5.90026272 L61.7499633,5.86616663 C61.7493076,4.84415821 61.748652,3.82193121 61.7499633,2.79970422 C61.7501819,2.57807964 61.7648257,2.33722137 61.7790324,2.10401286 C61.7866822,1.9824909 61.7938948,1.86315458 61.799359,1.74622248 L61.831488,1.09096558 L59.6478083,0.986273102 L58.9849016,0.975781998 L58.9831531,1.0190578 L57.8656319,1.0190578 L57.8669433,4.22780582 C57.8693475,7.45622465 57.8713146,10.5082618 57.8435569,13.6147215 C57.8157992,13.6553746 57.7705563,13.7141685 57.7014898,13.7834535 C55.3451441,16.1649342 52.8233448,18.6867334 49.5249853,21.9597394 C49.486955,21.9973326 49.4550446,22.0277131 49.4285983,22.0524109 C46.8853797,22.0760159 44.3893711,22.0744859 41.7523883,22.0731745 L40.8381322,22.0725188 L40.8381322,0.257359906 L36.9135849,0.239656168 L36.9135849,25.9513861 L43.3133772,25.9542275 C45.2802407,25.9542275 47.6101402,25.950949 49.9798184,25.927344" id="Fill-15" fill="#F0F0F0"></path>
                        <path d="M38.2183067,130.464228 C38.2034443,130.464009 38.1874891,130.464009 38.1710968,130.463791 C36.9281195,130.455485 35.6855793,130.456141 34.4432576,130.458108 L34.197591,130.458108 C32.315312,130.459638 30.3676821,130.460294 28.4604868,130.428383 C28.341369,130.424012 28.0207346,130.291562 27.9335273,130.21113 C25.6888681,128.0504 23.5025656,125.827597 21.8486867,124.132409 C21.0605425,123.32525 20.1677058,122.9491 19.0383821,122.9491 L19.0090945,122.9491 C15.194048,122.970301 11.307531,122.969645 7.54931135,122.966804 L6.83547912,122.966585 C5.5411391,122.965711 4.24701765,122.964837 2.95267764,122.964837 L0.984502728,122.964837 L0.984502728,124.120388 L0.769872216,124.152954 L1.20219315,126.961947 L1.85001885,126.862282 C1.94050462,126.848294 2.02049929,126.83365 2.09459272,126.819443 C2.11863483,126.815072 2.14573685,126.809608 2.16824902,126.805892 L4.67321877,126.803707 C9.33673327,126.799335 14.1569586,126.793871 18.9684414,126.826437 C19.0305138,126.858348 19.142856,126.929818 19.2514827,127.035822 C21.2052323,128.943018 23.2770069,130.976762 25.2373135,133.030396 C26.1012996,133.935691 27.116314,134.358395 28.4329476,134.358395 C28.4497771,134.358395 28.4666066,134.358176 28.4834361,134.358176 C30.2245223,134.332823 31.9433149,134.334353 33.8489803,134.33785 L34.0013199,134.338068 C35.3771845,134.339817 36.8000406,134.341565 38.2047557,134.329326 C38.2075971,134.329107 38.2108755,134.329107 38.2137169,134.329107 C38.9216479,135.925503 40.4465736,136.914727 42.2084235,136.914727 C42.5926602,136.914727 42.9810496,136.866424 43.3628821,136.77113 C45.3660274,136.271928 46.7292152,134.540459 46.755443,132.463002 C46.7818893,130.322161 45.410396,128.538454 43.3434298,128.025265 C41.1872893,127.489563 39.0938768,128.489715 38.2183067,130.464228" id="Fill-17" fill="#F0F0F0"></path>
                        <polygon id="Fill-19" fill="#F0F0F0" points="41.2963531 116.796242 41.2963531 85.7910942 0.988436893 85.7910942 0.971825977 88.9930667 0.975541577 88.9930667 0.972263106 89.7580431 37.4104917 89.7580431 37.4104917 112.848308 0.178654766 112.848308 0.242038523 116.796242"></polygon>
                        <path d="M129.503418,74.2572395 L129.504073,74.9129336 L129.501013,74.2572395 C129.074812,74.2572395 128.882038,74.1805233 128.60468,73.9009791 C122.9644,68.2224502 116.947533,62.2051461 110.209621,55.5052645 C109.977505,55.2744602 109.895106,55.1166566 109.89598,54.6897997 C109.911498,46.7998335 109.909531,38.8274684 109.907346,31.1180365 L109.906034,22.4182881 L101.911157,22.4209109 C95.3461299,22.4239708 88.5568553,22.4274679 81.8827644,22.4018958 C81.5090188,22.4003658 81.1778933,22.2954548 81.1103568,22.2482448 C78.60189,19.8269853 75.9089546,17.137547 72.6355115,13.7841092 C72.5662265,13.7132942 72.4680909,13.4770258 72.4663424,13.3412971 C72.4276565,10.459959 72.4337763,7.52419827 72.439459,4.68504312 L72.4431746,2.65304732 C72.4433931,2.50048918 72.4593484,2.3184248 72.4763964,2.12630645 C72.4868875,2.00959292 72.49716,1.89047517 72.5056841,1.76742326 L72.5515826,1.11325918 L70.3711814,0.960701035 L69.7165802,0.934473274 L69.7104604,1.02211771 L68.5542533,1.02211771 L68.5542533,2.92144475 C68.5542533,3.80772451 68.5564389,4.6944414 68.5588431,5.5805026 L68.5594988,5.78442344 C68.5662743,8.24327605 68.573487,10.7856204 68.5332711,13.2803176 C68.5122889,14.5888643 68.9551009,15.6410347 69.9264023,16.5909167 C72.7461052,19.349203 75.5450445,22.1494536 78.245411,24.9132039 C79.1483017,25.8379511 80.159819,26.268742 81.4283684,26.268742 L81.4535034,26.268742 C87.8351548,26.2407658 94.2316686,26.2429514 100.417267,26.2453556 L106.084431,26.2464484 L106.085742,32.8025145 C106.088365,40.0144931 106.090988,47.4719199 106.066072,54.8038905 C106.061045,56.2000817 106.488339,57.2480993 107.451116,58.2023527 C113.411593,64.1079702 119.671723,70.3720338 126.05709,76.8199104 C126.951675,77.722801 127.936527,78.1256157 129.271739,78.1256157 C135.86212,78.1037593 142.744284,78.1061635 148.815574,78.1074749 L152.516092,78.1081306 L152.408777,78.2261555 C149.391492,81.5420002 146.540971,84.6749063 143.61898,87.8386299 C143.56412,87.8655134 143.448937,87.9035437 143.362167,87.9055107 C142.057335,87.9391697 140.718408,87.9339241 139.424287,87.9297714 L139.318939,87.9293343 C138.749578,87.9267115 138.179124,87.9258373 137.610418,87.9251816 L134.882294,87.9282415 C124.691935,87.9393883 114.501357,87.9505351 104.317336,87.9704244 C103.47761,86.0199533 101.368242,84.9666901 99.2086048,85.4519037 C97.2128908,85.8988684 95.7004232,87.7896715 95.6903692,89.8500807 C95.6805338,91.8849178 97.1833845,93.7811849 99.1860927,94.2607158 C99.530332,94.3433333 99.883314,94.3852977 100.23411,94.3852977 C101.982191,94.3852977 103.557386,93.3652564 104.283021,91.7662372 C120.27365,91.7924649 132.42213,91.7918093 143.668813,91.7649258 C144.611482,91.7625216 145.662123,91.3127155 146.282846,90.6456561 C149.707318,86.9680868 153.355599,82.98256 157.435983,78.4615496 C157.71203,78.1555591 157.869834,78.0888969 158.243361,78.0886783 C161.541502,78.112939 165.004878,78.1105348 167.786769,78.1092234 C169.489606,78.1083491 171.192225,78.1076934 172.894626,78.1107533 C173.686048,78.1122833 174.51725,78.1361068 175.250534,78.1573076 C175.617941,78.1677987 175.985786,78.1780713 176.353412,78.1865953 L177.80643,78.2198171 L177.80643,74.2530868 L168.572728,74.2509011 C157.156876,74.2476227 142.949954,74.2436885 129.503418,74.2572395" id="Fill-21" fill="#F0F0F0"></path>
                        <path d="M7.45808245,104.205518 C12.9254778,104.209015 18.2774711,104.210108 23.6480423,104.192623 C23.6650903,104.192841 23.6954708,104.19306 23.7284741,104.193715 C24.4110516,105.776561 25.9790346,106.799006 27.7244921,106.799006 C28.0897136,106.799006 28.4573394,106.753763 28.8166598,106.664371 C30.8877786,106.149869 32.2804728,104.389549 32.2820027,102.283897 C32.2833141,100.253869 30.8842816,98.4150839 28.9547926,97.9115109 C26.8382123,97.3616022 24.6956228,98.3359635 23.7435551,100.283593 C23.7310969,100.309165 23.7177644,100.336486 23.704432,100.363369 C18.5401858,100.34195 13.2941964,100.341513 8.20928925,100.341076 C6.25291683,100.341076 4.29654441,100.340857 2.3395163,100.339764 C2.29143207,100.339764 2.18499107,100.325339 2.08160998,100.31157 C1.98893856,100.299111 1.89014732,100.285998 1.78305063,100.274632 L1.13150933,100.204254 L0.826174477,103.027454 L0.966711564,103.042972 L0.966711564,104.203988 L7.45808245,104.205518 Z" id="Fill-23" fill="#F0F0F0"></path>
                        <path d="M174.443419,41.6731804 L174.440577,41.6731804 C172.536005,41.6594109 170.566737,41.6452042 168.61867,41.6611594 C167.870742,41.6679349 167.193847,41.9424521 166.68787,42.1809062 C165.201411,42.8803131 163.717794,43.5860585 162.234396,44.2915853 L162.18347,44.3158459 C159.879361,45.4115107 157.497006,46.5445499 155.146125,47.6332206 C154.699816,47.8397642 154.154934,47.9601934 153.650487,47.9628161 C147.003498,48.0006278 140.825986,47.9988793 134.765406,47.9584448 C134.547497,47.9569149 134.233419,47.8207491 134.144245,47.7331047 C130.081783,43.7311854 126.091885,39.7294848 122.285144,35.8392521 C122.164934,35.7162002 122.016747,35.3621254 122.015217,35.124327 C121.980684,29.1583856 121.983306,23.0897188 121.986148,17.2208201 L121.988115,9.80907339 L88.3796431,9.80907339 L88.3796431,1.00266545 L87.6146667,1.00506966 L87.6146667,0.999824112 L84.442419,1.01446795 L84.442419,13.6173443 L118.133727,13.6173443 L118.134601,18.4867467 C118.13635,24.0498734 118.138098,29.8022772 118.117116,35.4801503 C118.112745,36.668705 118.492829,37.5997906 119.31332,38.4108841 C121.176803,40.2531657 123.092304,42.1666995 124.782027,43.8546745 C127.011168,46.0818485 129.316151,48.384646 131.636434,50.6649312 C132.313547,51.3306792 133.361565,51.7651858 134.305983,51.7719613 C137.589043,51.7955663 141.026628,51.8071502 144.815447,51.8071502 C147.728258,51.8071502 150.872967,51.8005933 154.429451,51.7866051 C155.166888,51.7837638 155.969676,51.596891 156.689847,51.2607385 C158.327989,50.4951065 159.985365,49.7056509 161.592908,48.9398002 C163.699216,47.9365884 165.877213,46.8992804 168.038599,45.9032812 C168.561625,45.6619858 169.220597,45.5137989 169.894432,45.4856041 C171.428975,45.4220018 173.003733,45.4169748 174.527129,45.4119478 L174.625046,45.4115107 C175.216482,45.4097621 175.807481,45.4077951 176.398917,45.4023309 L177.806473,45.3892171 L177.806473,41.6945998 L176.393671,41.6867314 C175.743441,41.6830158 175.093649,41.6779889 174.443419,41.6731804" id="Fill-25" fill="#F0F0F0"></path>
                        <g id="Group-29" transform="translate(130.920241, 0.159334)">
                            <mask id="mask-2" fill="white">
                                <use xlink:href="#path-1"></use>
                            </mask>
                            <g id="Clip-28"></g>
                            <path d="M24.7099825,30.8067349 L24.7119496,31.4624289 L24.7021142,30.8067349 C24.2811586,30.8067349 24.1008427,30.7337342 23.8256698,30.4513487 C21.3379667,27.8980761 18.8297184,25.4116844 16.4705313,23.0809107 C17.2226124,20.9940551 16.4757769,18.8508099 14.578854,17.7059681 C12.794492,16.6277886 10.511584,16.914764 9.02578131,18.4029709 C7.5662064,19.8660428 7.31660554,22.2147389 8.4330339,23.9879541 C9.54793232,25.7570166 11.6258267,26.4673518 13.7478711,25.8297986 C15.4163939,27.4661923 17.0888508,29.1417091 18.7254631,30.7872826 L16.634892,30.7861898 C12.7129674,30.7831299 8.27676016,30.7787586 3.94262263,30.8089205 C3.95945211,27.3129785 3.95661077,23.7639253 3.95398799,20.3294 L3.95376943,20.1650393 C3.95092809,16.8321466 3.94830531,13.3860373 3.96229345,9.98254818 C3.97081747,9.90954758 4.0665488,9.69273142 4.19725048,9.55743988 C6.62790824,7.0446018 8.65203571,5.02091146 10.5688479,3.18890234 C10.7161605,3.04792813 11.0778851,2.90367544 11.2855215,2.90280118 L11.940997,2.9001784 L11.9307244,0.0590561756 L11.2750304,0.061460387 C10.4908203,0.0643017278 9.62617847,0.359582606 8.96239755,0.842829105 L8.85245952,0.843703364 L7.9095715,0.111730263 L7.50763106,0.62994711 C7.43091486,0.728738344 7.36228555,0.82250259 7.29474907,0.914518319 C7.21715861,1.02117788 7.14350231,1.1219362 7.10022651,1.16564913 C6.47688005,1.79205549 5.85178508,2.41671334 5.22625297,3.04137118 L5.1908455,3.0765601 C3.86372078,4.40259199 2.49113461,5.77386677 1.15920147,7.14689007 C0.918124636,7.3953981 0.131073236,8.29326179 0.126046249,9.41187581 C0.0963214529,16.0474994 0.102222699,22.7926239 0.107905381,29.3250849 L0.110746722,32.5845399 C0.110965286,32.7805924 0.135881659,32.9456088 0.159486644,33.0999154 C0.167573537,33.1517153 0.176316124,33.2098535 0.184840147,33.2776085 L0.326688622,34.4012495 L1.4529524,34.5129361 C1.54212679,34.5221158 1.63086405,34.5334811 1.72134982,34.5450651 C1.9615524,34.575227 2.23388399,34.6097602 2.53353616,34.6097602 C11.1410502,34.6130387 19.7474715,34.6147872 28.3552042,34.6147872 C33.770144,34.6147872 39.1863953,34.6141315 44.6015537,34.6128201 C44.8837207,34.6128201 45.1372557,34.5817839 45.3650001,34.5540262 C45.4443391,34.5441908 45.5236781,34.5343554 45.6017056,34.5267056 L46.8862102,34.4027795 L46.8862102,30.8198487 L40.8013697,30.8102319 C35.8268376,30.8010522 30.1887432,30.7909982 24.7099825,30.8067349" id="Fill-27" fill="#F0F0F0" mask="url(#mask-2)"></path>
                        </g>
                        <path d="M49.1742764,13.7137532 L49.1902316,13.7137532 C51.1999338,13.7137532 53.0350029,12.3197477 53.5538754,10.3990013 C54.1385359,8.23455532 53.1243958,6.00475849 51.1949069,5.21246154 C51.1483526,5.19344641 51.1144751,5.17814689 51.0899958,5.16678152 C51.0864988,5.10623911 51.0860616,5.00351371 51.0934928,4.82997336 C51.1256218,4.08619776 51.1186278,3.37739252 51.1111966,2.62705998 C51.1083552,2.3138568 51.1052953,1.99715659 51.1052953,1.67477369 L51.1052953,1.01995392 L47.9881259,1.0151455 L47.9881259,1.01601975 L47.2231496,1.01492693 L47.2231496,5.14120946 C47.172224,5.16700009 47.1202056,5.19410211 47.0677501,5.22185982 C45.2053605,6.22091896 44.2858589,8.3361879 44.832052,10.3662166 C45.3603228,12.3295831 47.1459962,13.706322 49.1742764,13.7137532" id="Fill-30" fill="#F0F0F0"></path>
                        <path d="M59.8901309,30.7278767 L59.8901309,30.7280953 C59.7445669,30.8950787 59.6466499,30.9628337 59.2562934,30.9628337 C44.5064562,30.9495013 29.180264,30.948627 15.6581046,30.9477528 L2.7568874,30.94666 C2.53242148,30.94666 2.29112608,30.9326718 2.05748044,30.9191208 C1.93726987,30.9121267 1.81946351,30.9053512 1.70537274,30.9003242 L1.0509901,30.8712551 L1.00290587,31.9345723 L0.960067198,31.9345723 L0.960067198,32.8896999 L0.924441155,33.6885538 L0.960067198,33.6913952 L0.960067198,34.7759131 L40.6413585,34.7746017 C46.4519004,34.7721975 53.0374726,34.7695747 59.3351952,34.7955839 L59.3594559,34.7955839 C60.7744436,34.7955839 61.8329523,34.3350681 62.6906001,33.3458444 C63.4601664,32.4580347 64.2824067,31.5890215 65.086069,30.7396792 L65.1422401,30.6802296 C65.2266061,30.5910552 65.3107535,30.5020994 65.3946823,30.4135807 C65.4436408,30.4321587 65.493255,30.4505181 65.5443991,30.4684404 C67.5130112,31.149488 69.5579023,30.5165247 70.7536696,28.856526 C71.9474699,27.2008985 71.8768735,24.9431254 70.5820963,23.3661813 C69.3233824,21.8342615 67.1825414,21.2909097 65.3754486,22.0464878 C63.4363428,22.8558328 61.9356777,24.9676047 62.7813045,27.0997031 C62.9885038,27.6216355 62.9734228,27.6566059 62.2517223,28.3439918 C62.1218949,28.4674808 61.990756,28.5927184 61.8633328,28.7227644 C61.6489209,28.9413291 61.429482,29.1550853 61.2047975,29.3738685 C60.7678867,29.7998511 60.3158949,30.2402589 59.8901309,30.7278767" id="Fill-32" fill="#F0F0F0"></path>
                        <path d="M85.227853,69.6906585 L85.2280716,69.6906585 C87.0259846,67.8805058 88.8293618,66.0753801 90.6327389,64.270473 C93.3025064,61.5985199 96.0634154,58.8354252 98.8011566,56.0583425 C99.4839526,55.3659296 99.9298246,54.3192233 99.9372558,53.3918534 C99.9785645,48.0813875 99.9733189,42.7151875 99.9680734,37.5258064 L99.9654506,34.146578 C99.965232,33.8585097 99.9479654,33.582244 99.9324473,33.3392 C99.9258904,33.2312291 99.9193335,33.1221653 99.9136508,33.0126644 L99.8548569,31.8059688 L98.6551554,31.6704587 C98.559424,31.6595305 98.4748395,31.647728 98.3854466,31.6354884 C98.1852413,31.6077307 97.9784791,31.5790987 97.7413365,31.5788801 L95.3290381,31.5760388 C90.9020106,31.5705747 85.8846399,31.5644549 81.0095548,31.5989881 C80.096173,31.6057636 79.236121,32.1331602 78.7358265,32.624275 C75.6555945,35.6492101 72.8175321,38.4842125 70.0592459,41.2912387 C69.7687735,41.5869567 69.5869277,41.6634543 69.1729662,41.6634543 C50.1882198,41.6446577 30.8854618,41.6442206 12.21829,41.6437835 L0.960023485,41.6435649 L0.960023485,43.8292117 L0.973793059,44.4849057 L0.977508659,45.4629826 L15.9988032,45.4621084 C33.5587264,45.4621084 51.7155498,45.4610156 69.5502088,45.4754408 C70.7822579,45.4754408 71.7415382,45.0815873 72.5690241,44.235742 C75.6529717,41.0831651 78.4278688,38.3154806 81.0519563,35.7746662 C81.2353321,35.5969732 81.6272186,35.4264927 81.85846,35.4238699 C85.7559053,35.3770971 89.7250398,35.385184 93.5625984,35.393708 L93.5938532,35.393708 C94.4237432,35.3956751 95.2534147,35.3974236 96.0826491,35.3985164 C96.0826491,36.5907867 96.0817749,37.7832756 96.080682,38.9755459 L96.0802449,39.6163775 C96.0767479,43.9105177 96.0728137,48.3506591 96.1027571,52.7199856 C96.1060355,53.2183131 96.0057144,53.4705367 95.6724032,53.8003508 C93.5324365,55.9167126 91.3675534,58.0791915 89.2739223,60.1701997 L89.125954,60.318168 C87.0528681,62.3892869 84.7030792,64.7368901 82.4300066,66.9839535 C81.5452568,67.8586493 81.1343552,68.8465617 81.1365409,70.0925989 C81.154026,80.5517929 81.1559931,91.1875872 81.1579602,101.473459 L81.1579602,101.603068 C81.1588345,106.72535 81.1597087,111.848069 81.1623315,116.969914 L81.1623315,117.065208 C79.2188544,117.931161 78.1861363,119.972774 78.6429365,122.088917 C79.0809401,124.120038 80.9131678,125.611742 82.9976191,125.636222 L83.0509489,125.63644 C85.1074239,125.636222 86.9553882,124.196317 87.4454102,122.212843 C87.9695283,120.086646 86.947957,117.991922 84.9544286,117.064334 C84.9598927,113.33409 84.9616413,109.603628 84.9633898,105.873166 C84.9660126,100.074208 84.9684168,94.0776679 84.9869948,88.109978 C84.987869,88.0315133 85.0617439,87.8422363 85.1124509,87.7849723 C89.4100881,83.454769 93.7796331,79.1225985 97.4869272,75.4563946 C97.5142478,75.4295112 97.5420055,75.4072176 97.5656105,75.3906067 C99.5799025,75.3630675 101.624794,75.3665645 103.434072,75.3696244 L104.36625,75.3707173 C105.362905,77.3076374 107.251523,78.2962055 109.261881,77.9012591 C111.337808,77.4942917 112.8435,75.7468671 112.923276,73.6517061 C113.003926,71.5335958 111.618445,69.6185321 109.629069,69.0981296 C107.406048,68.516529 105.3546,69.4782136 104.360786,71.5554523 L104.041245,71.5528295 C101.868275,71.5327215 99.6212112,71.5117393 97.4003756,71.5845214 C96.5440392,71.6120605 95.4741651,72.0703907 94.8565013,72.6738477 C92.0840084,75.3823012 89.2929375,78.159384 86.5873253,80.8512265 C86.0459406,81.3897699 85.5047745,81.9283133 84.9631712,82.4668566 L84.9631712,82.4539613 C84.960767,78.1598211 84.9587999,74.1019493 84.9922403,69.9883435 C85.028522,69.9256155 85.1041454,69.8154589 85.227853,69.6906585" id="Fill-34" fill="#F0F0F0"></path>
                        <path d="M175.773385,100.296314 L175.815786,100.950478 L175.770762,100.296314 C175.414939,100.319482 175.078786,100.341338 174.755529,100.341338 C158.190294,100.344179 141.624621,100.344398 125.059386,100.344617 L94.1764154,100.345272 L94.1764154,121.491405 L101.657447,121.490093 C107.986425,121.487252 115.159062,121.485285 122.061115,121.517195 C122.281647,121.518288 122.592883,121.650083 122.678779,121.735541 C123.735977,122.784215 124.794048,123.832232 125.859114,124.887026 C131.424208,130.399008 137.178797,136.098738 142.703675,141.823165 C144.748129,143.941275 146.944048,144.885912 149.824293,144.885693 C149.911064,144.885693 149.998927,144.885038 150.085915,144.883071 C156.433471,144.763734 162.861676,144.793678 169.078093,144.823403 C171.513559,144.834768 173.948807,144.846133 176.384273,144.849193 L177.806473,144.850723 L177.806473,140.914155 L171.413019,140.918526 C164.003677,140.924864 155.606203,140.931858 147.572203,140.903882 C147.491116,140.892954 147.238018,140.774929 147.084148,140.621934 C140.055764,133.63617 132.729039,126.312723 125.307019,118.85464 C124.488713,118.032619 123.565933,117.649912 122.385028,117.649912 C116.251011,117.669146 110.007055,117.666523 103.968987,117.663463 L98.0659924,117.66084 L98.0659924,104.214304 L99.7961504,104.212993 C106.552203,104.207966 113.537749,104.203157 120.398057,104.228074 C120.445922,104.253209 120.521327,104.300637 120.587115,104.365551 C123.674778,107.422397 127.73724,111.45557 131.77719,115.54885 C132.655164,116.437752 133.638705,116.851714 134.885398,116.851714 C146.007061,116.827235 157.47974,116.831169 167.60147,116.834666 L171.144403,116.835759 C172.307605,116.835977 173.493974,116.846905 174.64122,116.857396 L174.724274,116.858271 C175.274839,116.863735 175.824966,116.868762 176.375093,116.872915 L177.806473,116.883624 L177.806473,112.938313 L170.519964,112.940499 C158.841398,112.944214 146.764388,112.948149 134.887583,112.923669 C134.803655,112.921265 134.575255,112.829905 134.480179,112.736578 C131.673153,109.980915 128.844052,107.147661 126.108496,104.407515 L125.897363,104.196163 L177.806473,104.196163 L177.806473,100.188124 L176.314114,100.263966 C176.133579,100.273146 175.953482,100.284511 175.773385,100.296314" id="Fill-36" fill="#F0F0F0"></path>
                        <g id="Group-40" transform="translate(57.701075, 150.313266)">
                            <mask id="mask-4" fill="white">
                                <use xlink:href="#path-3"></use>
                            </mask>
                            <g id="Clip-39"></g>
                            <path d="M54.1116087,0.179507169 L0.165038187,0.179507169 L0.167442399,7.53267858 C0.169409481,10.6703931 0.171157998,13.807889 0.165693881,16.9453849 C0.161759717,19.0573754 0.146897319,21.1870696 0.132253486,23.2468231 C0.125696545,24.2010765 0.119139605,25.1555484 0.113238359,26.1102389 L0.104932901,27.5392148 L4.04740253,27.5392148 L4.04740253,4.01881427 L50.2974366,4.01881427 L50.2974366,10.2634256 L10.8229075,10.2634256 L10.8229075,27.5392148 L14.7570717,27.5392148 L14.7570717,14.0183668 L54.1116087,14.0183668 L54.1116087,0.179507169 Z" id="Fill-38" fill="#F0F0F0" mask="url(#mask-4)"></path>
                        </g>
                        <g id="Group-43" transform="translate(84.365965, 160.804371)">
                            <mask id="mask-6" fill="white">
                                <use xlink:href="#path-5"></use>
                            </mask>
                            <g id="Clip-42"></g>
                            <path d="M91.5243954,0.231787839 C91.2166563,0.24118612 90.9089172,0.250365837 90.6016153,0.250584401 L82.7018136,0.25145866 C70.2182736,0.25145866 57.3118109,0.252988613 44.6226015,0.233754921 C43.4152502,0.233754921 42.4592483,0.635258232 41.6142773,1.49662162 C40.349662,2.78549752 39.0526992,4.08049323 37.7983566,5.33330595 C36.4469712,6.68294283 35.0492501,8.07825972 33.6840951,9.47401375 C33.4025838,9.76186342 33.2220494,9.83617541 32.798471,9.83617541 C25.0177871,9.81606746 17.104653,9.81737885 9.44964378,9.81759742 L0.113435067,9.81803455 L0.113435067,17.0479355 L3.82903457,17.0479355 L3.82903457,13.6750454 L3.87624454,13.6750454 C6.07893934,13.6750454 8.28141559,13.6741711 10.4836733,13.6730783 L10.9210212,13.6728597 C18.1297213,13.6704555 25.5832139,13.6673956 32.9119061,13.7006175 L32.9363853,13.7006175 C34.3118129,13.7006175 35.4111932,13.2296106 36.3956085,12.2180933 C38.7182953,9.83245981 41.258454,7.28902268 44.1609929,4.44265489 C44.3155181,4.29075244 44.4984567,4.19021269 44.5782328,4.16201785 C58.0020381,4.13775717 71.661019,4.14409555 84.8710681,4.1493411 L93.4405519,4.15327526 L93.4405519,0.184796434 L91.9862225,0.218892523 C91.832353,0.222608123 91.6784835,0.227197981 91.5243954,0.231787839" id="Fill-41" fill="#F0F0F0" mask="url(#mask-6)"></path>
                        </g>
                        <path d="M175.229967,60.7350364 L175.229749,60.7350364 C174.464991,60.7590785 173.674224,60.784432 172.887828,60.7848692 C159.513419,60.7903333 145.683302,60.7966716 131.725324,60.7651983 C131.367534,60.7643241 131.030507,60.6447692 130.956195,60.5859753 C129.519569,59.2118592 128.097369,57.7855061 126.721723,56.4061444 C125.757853,55.43987 124.761635,54.4408109 123.762139,53.461204 C123.762576,53.4590183 123.763232,53.4570513 123.764106,53.4548656 C124.500232,51.465927 123.706842,49.2912085 121.833961,48.1660376 C119.992117,47.0594446 117.607139,47.4183278 116.162645,49.0199698 C114.772574,50.5621621 114.626572,52.9198193 115.815346,54.6261537 C117.005212,56.333581 119.196978,56.9958319 121.154006,56.2435323 L122.413376,57.5112074 C124.388982,59.5016759 126.431906,61.5598995 128.470022,63.5540836 C128.969879,64.0430128 129.918231,64.6143409 130.947015,64.6167451 C138.533832,64.6324817 146.721484,64.6394758 157.495192,64.6394758 C161.818402,64.6394758 166.118224,64.638383 170.369526,64.6372901 L177.806408,64.6355416 L177.806408,60.6661885 L176.350548,60.7022517 C175.977021,60.7114314 175.603494,60.7230154 175.229967,60.7350364" id="Fill-44" fill="#F0F0F0"></path>
                        <path d="M177.80643,7.49257196 L176.51056,7.37760694 C176.438652,7.37105 176.366963,7.36296311 176.295055,7.35487621 L176.265986,7.35137918 C176.045673,7.32668137 175.796072,7.29870509 175.521336,7.29870509 C165.949077,7.29564519 156.376382,7.29651944 146.802812,7.30023504 C146.544468,7.30045361 146.298364,7.32099869 146.029311,7.34307372 C145.901669,7.35400195 145.760914,7.36558588 145.599395,7.37673268 L142.798488,7.56863247 L144.612138,9.71187768 C144.696941,9.81219887 144.767975,9.89962474 144.833981,9.98027511 C144.972114,10.1498813 145.102816,10.3100892 145.262805,10.4689857 L147.215243,12.4120257 C150.533711,15.7151936 153.964739,19.1307038 157.370195,22.4622852 C158.056925,23.1345902 159.068224,23.3824425 159.785772,23.3900923 C161.818642,23.4115116 163.977405,23.421347 166.578981,23.421347 C168.271764,23.421347 170.006075,23.4171943 171.815353,23.4121673 C172.886539,23.4091074 173.95379,23.3835353 174.985634,23.3588375 C175.461449,23.3474721 175.937483,23.3361068 176.413298,23.3267085 L177.80643,23.299825 L177.80643,19.6135132 L176.387726,19.6115461 C175.184309,19.6097976 173.981111,19.6091419 172.777693,19.6084862 C168.708238,19.606082 164.499993,19.6036778 160.34639,19.5575607 C160.132197,19.5551564 159.767194,19.4104666 159.62316,19.2708038 C156.907712,16.6384108 154.182648,13.9244933 151.547195,11.3001872 L151.362071,11.1157186 L177.80643,11.0859938 L177.80643,7.49257196 Z" id="Fill-46" fill="#F0F0F0"></path>
                        <path d="M151.934885,122.980945 L151.936196,123.636639 L151.920023,122.980945 C151.821887,122.980945 151.755443,122.978759 151.709982,122.976136 C151.702769,122.959526 151.694027,122.940073 151.68441,122.916905 C150.867197,120.991351 148.658382,119.956665 146.545517,120.510071 C144.576905,121.026758 143.182463,122.795602 143.154486,124.812517 C143.126073,126.890411 144.599199,128.808535 146.580925,129.274733 C146.944835,129.360411 147.315958,129.403905 147.684239,129.403905 C149.46729,129.403686 151.038333,128.393918 151.687033,126.831617 C151.694683,126.813039 151.701677,126.797084 151.707796,126.783096 C151.753695,126.780255 151.820794,126.778069 151.918274,126.778069 L151.942753,126.778069 C159.331551,126.801237 167.032896,126.797521 173.82676,126.793587 L174.978596,126.79315 C175.355183,126.792931 175.708384,126.764737 176.049344,126.737197 L176.082785,126.734575 C176.213486,126.724084 176.344407,126.713811 176.474671,126.705506 L177.806386,126.621795 L177.806386,122.994496 L171.04618,122.985535 C164.782554,122.977448 158.305827,122.968487 151.934885,122.980945" id="Fill-48" fill="#F0F0F0"></path>
                        <g id="Group-52" transform="translate(136.384358, 170.202652)">
                            <mask id="mask-8" fill="white">
                                <use xlink:href="#path-7"></use>
                            </mask>
                            <g id="Clip-51"></g>
                            <path d="M8.55241393,0.189102158 C7.86524659,0.189102158 7.15010297,0.476077578 6.68565303,0.938341869 C5.59588955,2.02373405 4.5257969,3.12923418 3.49111172,4.19823402 C3.15495925,4.54553329 2.81880678,4.89283256 2.48243574,5.23882044 L0.139640972,7.64980739 L5.40202269,7.64980739 L5.81816983,7.23256742 C6.09749549,6.9523675 6.37922535,6.6745718 6.66510795,6.39218624 C7.33697577,5.72884245 8.03201144,5.04276793 8.6949181,4.32871713 C8.948016,4.05682267 9.13969722,3.97813939 9.55715575,3.97813939 C17.6986899,4.00021442 25.9846954,3.99759164 33.9972764,3.995406 L38.5893203,3.99343892 C38.9543233,3.99322035 39.3151736,3.97289384 39.6360265,3.95497153 C39.7787492,3.94688464 39.9210349,3.93901631 40.0637576,3.9328965 L41.422137,3.87300978 L41.422137,0.220575471 L34.4783373,0.210740061 C25.9777013,0.198937568 17.1861558,0.186479382 8.55241393,0.189102158" id="Fill-50" fill="#F0F0F0" mask="url(#mask-8)"></path>
                        </g>
                        <path d="M174.585158,133.051771 L174.188463,133.053301 C171.991232,133.059858 169.720782,133.067727 167.503007,133.037565 C166.375431,131.045129 164.425616,130.118415 162.3875,130.615431 C160.320097,131.120315 158.926529,132.878231 158.919753,134.989566 C158.912978,137.085601 160.379547,138.934658 162.406953,139.386213 C162.759497,139.464896 163.113135,139.504675 163.45803,139.504675 C165.134858,139.504675 166.604706,138.579272 167.506504,136.962331 C169.757064,136.940693 172.045436,136.954681 174.261245,136.968232 L174.362878,136.968887 C175.035182,136.97304 175.706832,136.977411 176.3787,136.980908 L177.806364,136.987903 L177.806364,133.043903 L176.383071,133.046744 C175.783548,133.047619 175.184462,133.049804 174.585158,133.051771" id="Fill-53" fill="#F0F0F0"></path>
                        <path d="M166.798135,83.4218094 L166.797917,83.4218094 C165.652419,83.0382284 164.454029,83.1735199 163.332355,83.8123845 C161.662521,84.7629223 160.743675,86.7074922 161.09775,88.5412498 C161.470184,90.4689903 162.968664,91.9379635 164.826245,92.1963069 C165.06754,92.2297473 165.308617,92.2465768 165.542263,92.2465768 C167.216905,92.2463582 168.674513,91.3786564 169.541778,89.866626 C169.569973,89.8176675 169.599479,89.7724246 169.627674,89.7328644 C171.320894,89.7075109 173.024169,89.729586 174.674551,89.7507867 C175.240415,89.7579994 175.806279,89.765212 176.371924,89.7708947 L177.806364,89.7846643 L177.806364,85.8367305 L169.570191,85.8367305 C168.865539,84.6392146 167.89227,83.7883424 166.798135,83.4218094" id="Fill-55" fill="#F0F0F0"></path>
                    </g>
                </g>
            </g>
        </g>
    </g>
</svg>