<?xml version="1.0" encoding="UTF-8"?>
<svg width="181px" height="57px" viewBox="0 0 181 57" version="1.1" xmlns="http://www.w3.org/2000/svg" xmlns:xlink="http://www.w3.org/1999/xlink">
    <!-- Generator: Sketch 52.4 (67378) - http://www.bohemiancoding.com/sketch -->
    <title>Group 4</title>
    <desc>Created with Sketch.</desc>
    <g id="Page-1" stroke="none" stroke-width="1" fill="none" fill-rule="evenodd">
        <g id="tjs-desktop" transform="translate(-60.000000, -16.000000)">
            <g id="Group-4" transform="translate(60.000000, 16.000000)">
                <path d="M73.7477736,18.8714141 C73.7565786,19.6448481 73.1190943,20.2967726 72.3456604,20.3052255 L69.9394214,20.3319927 L70.0549434,30.6877663 C70.064805,31.5897538 69.3847044,32.284999 68.4612327,32.2952129 C67.5588931,32.3054267 66.8636478,31.6256783 66.853434,30.7233387 L66.7382642,20.3679173 L64.3320252,20.3943324 C63.558239,20.4031374 62.9070189,19.7656531 62.8978616,18.9922192 C62.8894088,18.218433 63.5268931,17.5672129 64.3006792,17.5584078 L72.3143145,17.4696531 C73.0877484,17.4608481 73.7393208,18.0979802 73.7477736,18.8714141 Z M76.4243623,25.8036506 L79.8192302,25.7659651 C79.8069031,24.6484305 79.3888403,23.7932858 78.1427522,23.8073739 C77.1329912,23.8182921 76.5155824,24.3627953 76.4243623,25.8036506 Z M82.7224252,26.0339902 C82.739683,27.5593739 82.2476579,27.7587198 81.560161,27.7664682 L76.4465509,27.8231726 C76.4581736,28.8544179 76.8762365,29.7303424 78.4875572,29.7127324 C78.9172428,29.7078016 79.3465761,29.6387701 79.7325887,29.5697387 C80.2682868,29.4781663 80.7817962,29.2784682 81.2977711,29.2731852 C82.1567899,29.2633236 82.5501987,29.8176883 82.5565384,30.3977638 C82.5625258,30.9348707 82.2226516,31.3039777 81.7739472,31.567072 C80.9843119,32.0270468 79.5473308,32.2366066 78.4946013,32.2482292 C74.9060226,32.2883802 73.2696956,30.0075248 73.2330667,26.7415626 C73.1964377,23.4329839 74.8264252,21.2447575 78.1138717,21.2081286 C81.551356,21.1700909 82.6949535,23.5418141 82.7224252,26.0339902 Z M92.1014742,29.0453462 C92.939361,29.036189 93.333122,29.6546544 93.3398138,30.2347299 C93.3461535,30.8148053 93.0284679,31.2053965 92.557927,31.4470066 C91.7034868,31.8862016 90.2235371,32.11795 89.3856503,32.1271072 C85.8837132,32.1658494 84.0314868,29.8226544 83.9962667,26.6863022 C83.9585811,23.2914343 85.9752855,21.1204657 89.2627321,21.084189 C90.3158138,21.0722141 91.5647195,21.3592582 92.3011723,21.8882644 C92.8861786,22.2897739 93.0830591,22.6314091 93.1785057,23.4682393 L93.2496503,24.0905789 C93.3690465,25.1422519 92.8403925,25.900189 91.9165686,25.910755 C91.1216503,25.91956 90.5789082,25.4095726 90.4397887,24.5086418 L90.3471597,23.9081387 C90.0664553,23.7824028 89.6571975,23.6792078 89.2916126,23.6830821 C87.8306818,23.6992833 87.1769962,24.8027299 87.1974239,26.6507299 C87.2171472,28.4124405 87.895839,29.5433588 89.3567698,29.5271575 C89.7434868,29.5225789 90.3013736,29.4306544 90.6229333,29.3626795 C91.1156629,29.2496229 91.7147572,29.0495726 92.1014742,29.0453462 Z M100.884845,20.9546846 C103.205147,20.9289739 104.573097,22.2028858 104.605147,25.0599424 L104.663613,30.3024582 C104.673474,31.2047978 103.993374,31.8996909 103.091034,31.9095525 C102.167562,31.9201185 101.493801,31.2400179 101.483235,30.3380305 L101.425122,25.0955148 C101.41033,23.7634896 100.763336,23.5556909 99.9254491,23.5648481 C99.3883421,23.5708355 98.7043673,23.9004959 98.2359396,24.3143324 L98.3039145,30.3732506 C98.3137761,31.2755902 97.6340277,31.9704833 96.7316881,31.9806972 C95.8293484,31.9905588 95.1341031,31.3108104 95.1238893,30.4088229 L94.9808956,17.5823575 C94.971034,16.6800179 95.6511346,15.9847726 96.5534742,15.9745588 C97.4558138,15.9646972 98.1507069,16.6447978 98.1609208,17.5467852 L98.2095245,21.9084456 C99.0185308,21.2329236 99.8965686,20.9656028 100.884845,20.9546846 Z M116.825721,16.9741764 C117.728413,16.9639626 118.423306,17.6433588 118.433167,18.5456984 L118.522274,26.5596858 C118.55996,29.9108808 117.399104,31.815233 113.897519,31.8543273 C113.059633,31.8634846 111.681821,31.6423022 110.750601,30.9865034 C110.252589,30.648038 110.032111,30.1567173 110.026123,29.6407424 C110.018727,28.9532456 110.505821,28.3034343 111.236287,28.2956858 C111.536714,28.2921638 111.838199,28.3316104 112.205897,28.5210946 C112.659532,28.7521387 113.242777,29.0462267 113.866174,29.0395349 C114.918551,29.0279122 115.341545,28.4432582 115.329218,27.3260758 L115.245746,19.8280632 L112.839859,19.8548305 C112.066073,19.8632833 111.414853,19.225799 111.405696,18.4523651 C111.397243,17.6785789 112.034727,17.0273588 112.808513,17.018906 L116.825721,16.9741764 Z M125.533756,29.1244506 C126.629102,29.1124758 127.45607,28.1150418 127.434586,26.2029412 C127.413102,24.2475198 126.564297,23.2684003 125.468599,23.2803751 C124.372901,23.2927022 123.545932,24.2904883 123.567769,26.2459097 C123.589253,28.1580104 124.438058,29.1367777 125.533756,29.1244506 Z M125.439718,20.6811299 C128.726813,20.6448531 130.580448,23.0951173 130.614611,26.1673688 C130.64807,29.1966519 128.892347,31.687067 125.562636,31.7244003 C122.232221,31.7613814 120.40007,29.3104129 120.366259,26.2814821 C120.332096,23.2088783 122.152272,20.718111 125.439718,20.6811299 Z M137.434989,28.9920229 C138.530687,28.9800481 139.099492,27.9424632 139.07836,26.0733311 C139.057228,24.1823626 138.551819,23.134916 137.198309,23.1500607 C136.833077,23.1539349 136.146284,23.2264883 135.676448,23.4677462 L135.72963,28.2805764 C136.228347,28.7046267 136.898234,28.9980104 137.434989,28.9920229 Z M137.21275,20.5930795 C140.542813,20.5560984 142.242888,22.728828 142.279869,26.0374066 C142.32319,29.9260607 140.257177,31.5609789 138.194335,31.5835198 C137.506838,31.5916204 136.192775,31.26196 135.256976,30.2194443 L135.174561,30.521633 C134.987894,31.125306 134.62724,31.5588657 133.767869,31.5683751 C132.779592,31.5796456 132.298838,30.8759475 132.290033,30.0591927 C132.283341,29.4791173 132.557001,28.9821613 132.543618,27.7790418 L132.425278,17.1654569 C132.415416,16.2631173 133.095517,15.5682242 133.997857,15.5576582 C134.921681,15.5477965 135.595442,16.2278972 135.605655,17.1298846 L135.647919,20.9114695 C136.161429,20.7336078 136.718611,20.5987148 137.21275,20.5930795 Z M148.904599,24.8247777 C150.478234,25.2586896 152.612221,25.9011047 152.637228,28.1143374 C152.661882,30.34835 150.482108,31.4472179 148.162511,31.4729286 C147.173882,31.4838468 145.431542,31.3095072 144.502435,30.8689034 C144.005831,30.6378594 143.636372,30.2983374 143.630033,29.7182619 C143.622989,29.0733814 144.04563,28.4242745 144.905001,28.4144129 C145.377655,28.4094821 145.916875,28.5965009 146.455743,28.7412556 C147.059416,28.906438 147.640901,29.0290041 148.156523,29.0230166 C149.015542,29.0135072 149.46319,28.664828 149.458611,28.278111 C149.452976,27.7628405 148.676725,27.4705135 147.383794,27.1408531 C146.197932,26.8319726 143.676523,26.1722997 143.65046,23.8305135 C143.625454,21.5746644 145.804875,20.4546644 147.931819,20.4307148 C149.049001,20.4183877 150.599039,20.7019097 151.377404,21.1016582 C151.831039,21.3327022 152.221982,21.6937085 152.228674,22.2741361 C152.235014,22.8753437 151.854989,23.4811299 151.06007,23.4899349 C150.608901,23.4952179 150.155618,23.306438 149.681203,23.1616833 C149.163467,22.9954443 148.689756,22.8718217 148.109681,22.8781613 C147.185857,22.8883751 146.824146,23.2148657 146.828725,23.623067 C146.835769,24.246111 147.676473,24.4947651 148.904599,24.8247777 Z" id="Combined-Shape" fill="#3F3F4E"></path>
                <path d="M28.6106465,45.6387097 C31.3271748,45.6387097 32.7775396,45.7415525 35.4919547,45.6027852 C37.0120553,45.5256531 37.0198038,43.1546343 35.4919547,43.2331751 C32.7775396,43.3715902 31.3271748,43.2687475 28.6106465,43.2687475 C27.0820931,43.2687475 27.0820931,45.6387097 28.6106465,45.6387097" id="Fill-17" fill="#1A1A1C"></path>
                <path d="M35.7606138,48.2691953 C32.9475824,48.4167676 31.4003623,48.4414217 28.5831044,48.4530443 C27.0549031,48.4590317 27.0541987,50.828994 28.5831044,50.8230066 C31.4003623,50.8113839 32.9475824,50.7867299 35.7606138,50.6391575 C37.2803623,50.5592078 37.2884629,48.1892456 35.7606138,48.2691953" id="Fill-19" fill="#1A1A1C"></path>
                <path d="M22.675527,26.181633 C21.8003069,26.181633 21.0906214,26.8913185 21.0906214,27.7665387 L21.0906214,30.327394 C21.0906214,31.2026141 21.8003069,31.9122997 22.675527,31.9122997 C23.5507472,31.9122997 24.2604327,31.2026141 24.2604327,30.327394 L24.2604327,27.7665387 C24.2604327,26.8913185 23.5507472,26.181633 22.675527,26.181633" id="Fill-21" fill="#1A1A1C"></path>
                <path d="M29.7195522,25.8294317 C28.8443321,25.8294317 28.1346465,26.5391173 28.1346465,27.4143374 L28.1346465,29.9751927 C28.1346465,30.8504129 28.8443321,31.5600984 29.7195522,31.5600984 C30.5947723,31.5600984 31.3044579,30.8504129 31.3044579,29.9751927 L31.3044579,27.4143374 C31.3044579,26.5391173 30.5947723,25.8294317 29.7195522,25.8294317" id="Fill-23" fill="#1A1A1C"></path>
                <g id="Group-27" transform="translate(0.000000, 0.506373)" fill="#3F3F4E">
                    <path d="M27.0253887,35.572327 C22.1970616,35.5392201 18.6919547,35.731522 16.2399296,35.9667925 C16.3970113,29.226717 16.2860679,25.0982138 16.2018918,23.1829434 C18.6232755,22.9916981 21.7575145,22.7620629 25.0153761,22.5722264 C29.3770365,22.3182893 33.0307723,22.1907925 35.8740931,22.1886792 C35.8596528,24.3209057 35.9068478,29.4197233 36.5129862,35.8125283 C34.3620931,35.6980629 31.311678,35.5994465 27.0253887,35.572327 M23.3519296,4.08659119 C23.3519296,3.3596478 23.9415145,2.77006289 24.6684579,2.77006289 C25.3954013,2.77006289 25.984634,3.3596478 25.984634,4.08659119 C25.984634,4.49479245 25.7951497,4.85474214 25.503527,5.0963522 L25.5059925,5.10093082 L25.5028226,5.0970566 C25.2749484,5.28513208 24.9868478,5.4027673 24.6684579,5.4027673 C23.9415145,5.4027673 23.3519296,4.81353459 23.3519296,4.08659119 M51.0081811,25.6744151 C50.1393006,25.6060881 49.3693887,26.2495597 49.2957786,27.1212579 L49.0657912,29.8596226 L47.0811371,29.8596226 L46.7549987,27.053283 C46.6535648,26.1833459 45.8607597,25.5578365 44.9975145,25.6617358 C44.1282818,25.7628176 43.5052377,26.5496352 43.6063195,27.4192201 L44.0958792,31.627673 C44.1885082,32.4268176 44.865439,33.029434 45.6698667,33.029434 L46.6056654,33.029434 L46.1935899,39.2623396 C45.6497912,39.2686792 44.8925585,39.2633962 43.8581434,39.2334591 C43.4347975,39.2211321 43.0082818,39.208805 42.6000805,39.2204277 L42.4933635,37.6918742 C42.4440553,36.9885283 41.9365333,36.4021132 41.2472755,36.2531321 C41.1454893,36.2309434 40.7189736,36.1478239 39.7208352,36.0467421 C39.0900428,29.6444277 39.0350994,24.4033208 39.0453132,22.2545409 C39.7000553,22.2865912 40.2773132,22.3306164 40.7658164,22.3869686 C41.6339925,22.4905157 42.4215145,21.8646541 42.522244,20.9950692 C42.6229736,20.1258365 41.9999296,19.3393711 41.1303447,19.2386415 C40.1867975,19.1291069 38.988961,19.0604277 37.5445836,19.0322516 C34.8586969,7.50787421 29.0783698,10.1624151 26.3333132,11.2605786 L26.3794516,7.41383648 C27.0648352,7.11516981 27.8118541,6.22586164 28.0886843,5.71798742 C28.5148478,4.93715723 28.6624201,4.13026415 28.5268226,3.32020126 C28.2390742,1.5965283 26.8672503,0.368754717 25.1897157,0.333886792 C25.151678,0.329660377 25.1196277,0.339169811 25.1051874,0.347622642 C24.3039296,0.272955975 23.581917,0.426867925 22.8968855,0.82027673 C22.703527,0.931572327 22.5390491,1.09675472 22.4189484,1.30032704 C21.5211874,2.01106918 21.0161308,2.77393711 20.8756025,3.63189937 C20.6530113,4.99773585 21.3574138,6.06913208 21.9064956,6.75662893 C21.9734138,6.84045283 22.0579421,6.91441509 22.1505711,6.9725283 C22.2910994,7.08241509 22.4481811,7.1669434 22.6179421,7.22188679 C23.0789736,7.37192453 23.5023195,7.48181132 23.9119296,7.56140881 L23.8682566,11.2042264 C21.2355522,10.128956 16.2585962,8.07280503 13.8829987,20.1913459 C12.2878792,20.324478 11.3080553,20.4146415 11.2830491,20.4171069 C10.4113509,20.4974088 9.76999245,21.269434 9.85064654,22.1407799 C9.92636981,22.9628176 10.6173887,23.5798742 11.4270994,23.5798742 C11.4757031,23.5798742 11.5250113,23.577761 11.5746717,23.5731824 C11.5929862,23.5714214 12.1258667,23.5224654 13.0380679,23.4439245 C13.1201308,25.3961761 13.2264956,29.6070943 13.0595522,36.3721761 C11.9944956,36.5517987 11.4957786,36.6951447 11.4397786,36.7116981 C10.7635522,36.9113962 10.3007597,37.5337358 10.3035774,38.2388428 L10.3162566,40.9514969 C10.0658415,40.9666415 9.73688553,40.981434 9.3061434,40.9944654 C8.1600805,41.0275723 7.27147673,41.0782893 6.59877233,41.1300629 L6.21064654,35.4948428 L6.79072201,35.4948428 C7.59514969,35.4948428 8.2720805,34.8922264 8.36506164,34.0930818 L8.85426918,29.8846289 C8.95535094,29.015044 8.33265912,28.2282264 7.46307421,28.1271447 C6.5913761,28.0250063 5.8070239,28.6491069 5.70594214,29.5186918 L5.37945157,32.3250314 L3.39444528,32.3250314 L3.16445786,29.5866667 C3.0912,28.7142642 2.32516226,28.0704403 1.45240755,28.1398239 C0.580005031,28.2130818 -0.0676930818,28.9798239 0.00556477987,29.8522264 L0.357766038,34.042717 C0.426797484,34.8636981 1.11358994,35.4948428 1.93738868,35.4948428 L3.03379119,35.4948428 L3.55011824,42.9967296 C3.58111195,43.4478994 3.80757736,43.8634969 4.16506164,44.140327 C4.44470943,44.3565786 4.78881006,44.4717484 5.13819371,44.4717484 C5.23540126,44.4717484 5.33296101,44.4625912 5.43016855,44.4442767 C5.44038239,44.4428679 6.52304906,44.2463396 9.39806792,44.1628679 C9.72455849,44.1533585 10.0352,44.1438491 10.3303447,44.1294088 L10.3754264,54.0702893 C10.3793006,54.943044 11.0879296,55.6477987 11.9603321,55.6477987 L11.9673761,55.6477987 C12.8425962,55.6435723 13.5487597,54.9310692 13.5452377,54.0554969 L13.4793761,39.5131069 C15.286873,39.1996478 19.4125585,38.6974088 27.0053132,38.7421384 C32.5616403,38.7777107 35.9716528,38.9337358 37.9851874,39.0788428 C38.0802818,39.096805 38.1781937,39.1063145 38.2775145,39.1063145 C38.2916025,39.1063145 38.306395,39.1042013 38.3208352,39.1038491 C38.7600302,39.1380126 39.1242063,39.1711195 39.4211119,39.2014088 L40.4055145,53.313761 C40.4667975,54.1872201 41.2243824,54.8440755 42.0971371,54.7845535 C42.9698918,54.7236226 43.6288604,53.9663899 43.5679296,53.0929308 L42.8216151,42.3930566 C43.0540679,42.388478 43.3597786,42.3898868 43.7662189,42.4018616 C46.8088855,42.491673 47.7429233,42.3736855 47.9574138,42.3356478 C48.6759044,42.2088553 49.2151245,41.6076478 49.2633761,40.8792956 L49.7821686,33.029434 L50.5232,33.029434 C51.3469987,33.029434 52.033439,32.3982893 52.1024704,31.5773082 L52.4546717,27.3868176 C52.5279296,26.5144151 51.8802314,25.747673 51.0081811,25.6744151" id="Fill-25"></path>
                </g>
                <path d="M69.5530214,43.9722695 C71.7838642,44.8612255 73.9502541,45.9009236 73.9407447,48.5434896 C73.930883,51.2075399 71.7535748,53.0477915 68.659839,53.0358166 C67.8434365,53.032999 66.4902792,52.8991626 65.5245434,52.5733764 C64.3872855,52.1820808 63.8737761,51.5572758 63.7920654,50.4182569 L63.7311346,49.4722443 C63.6501283,48.139867 64.403839,47.7344833 65.0913358,47.7369487 C65.8644176,47.7397663 66.5286692,48.2582066 66.6329208,49.1823827 L66.7156881,49.9776531 C67.2735748,50.1516405 68.1973987,50.2192632 68.6700528,50.2210242 C70.002078,50.2263072 70.7131723,49.6701814 70.7166943,48.8104582 C70.7202164,47.71476 69.5618264,47.2812003 67.888166,46.6088481 C65.7862289,45.7628607 63.7695245,44.8531248 63.779034,42.2746594 C63.7881912,39.8465839 65.5999145,37.9630116 69.0162667,37.9753387 C69.8974742,37.9785085 70.8639145,38.1109361 71.7215245,38.4367223 C72.7731975,38.8487978 73.2870591,39.4302821 73.3902541,40.4840682 L73.4730214,41.365628 C73.5969962,42.6120682 72.8862541,43.103389 72.0913358,43.1005714 C71.2964176,43.0977538 70.6966189,42.5581814 70.5715874,41.6551374 L70.4662792,40.9672883 C69.9295245,40.8577538 69.3927698,40.7915399 68.8986314,40.7894267 C67.5232855,40.7844959 67.027034,41.2983575 67.0242164,42.0503072 C67.0213987,42.9311626 67.7289711,43.2562443 69.5530214,43.9722695 Z M87.4781283,42.12596 C88.3589836,42.1294821 89.0440151,42.8409286 89.0408453,43.7217839 C89.0401409,43.9151424 88.973927,44.4089286 88.9302541,44.581155 L87.573927,51.064828 C87.3552101,52.1165009 86.6000906,53.0375072 85.1388075,53.0325764 C83.6560403,53.0269412 82.8864805,52.0999475 82.696644,51.0465135 L82.1285434,47.9291802 L81.9992855,47.928828 L81.450556,51.0419349 C81.2748075,52.0943122 80.4763673,53.0149663 78.9939522,53.0093311 C77.5330214,53.0044003 76.7842415,52.0777588 76.573273,51.0239726 L75.2651975,44.530438 C75.2229333,44.3585638 75.1598893,43.8640733 75.1605937,43.6707148 C75.1641157,42.7898594 75.854078,42.0829915 76.7352855,42.0865135 C77.4442667,42.0889789 78.1514868,42.6289034 78.2560906,43.294916 L79.1774491,49.8085261 L79.2848704,49.8088783 L80.1178264,45.4722242 C80.2928704,44.5491047 80.7686943,43.734111 82.1007195,43.7390418 C83.4330969,43.7443248 83.9025811,44.5624883 84.0709333,45.4870166 L84.8066818,49.8296582 L84.9574239,49.8300104 L85.948166,43.3234443 C86.0580528,42.6581361 86.768795,42.1234946 87.4781283,42.12596 Z M97.2864755,50.3056934 C98.0169409,50.308511 98.5734189,50.8903475 98.5709535,51.6208129 C98.5684881,52.3516305 98.0070792,52.9295927 97.2766138,52.9267751 L91.3684377,52.9052909 C90.6379723,52.9024733 90.0814943,52.3202846 90.0843119,51.5898192 C90.0867774,50.8590016 90.647834,50.2813915 91.3786516,50.2838569 L92.7532931,50.2887877 L92.7730164,44.9173663 L91.440639,44.9124355 C90.7105258,44.9099701 90.1536956,44.3489135 90.1565132,43.6184481 C90.1593308,42.8879827 90.7203874,42.2881839 91.4508528,42.2910016 L94.6734943,42.3029764 C95.4039597,42.305794 95.9600855,42.8879827 95.9579723,43.6188003 L95.932966,50.3007626 L97.2864755,50.3056934 Z M105.66397,44.9652305 L103.472221,44.9571299 L103.456725,49.2110166 C103.454259,49.9629663 103.709957,50.4796456 104.37597,50.482111 C104.956045,50.4845764 105.129328,50.1196959 105.709756,50.1221613 C106.354284,50.1242745 106.932599,50.5560733 106.929781,51.3513437 C106.927668,51.8454821 106.689932,52.2526267 106.194737,52.5734821 C105.440674,53.0644506 104.430561,53.16835 103.850486,53.1662368 C101.357957,53.1570795 100.270008,51.1114946 100.276699,49.2208783 L100.292548,44.945155 L99.3468881,44.9419852 C98.6164226,44.9391676 98.0599447,44.378111 98.0627623,43.6476456 C98.0655799,42.9175324 98.6266365,42.3173814 99.3571019,42.320199 L100.30241,42.3237211 L100.310158,40.2827148 C100.313328,39.3803751 101.003643,38.6953437 101.905982,38.6985135 C102.808322,38.7020355 103.493001,39.3919978 103.489831,40.2943374 L103.482435,42.3353437 L105.673831,42.3437965 C106.404649,42.3462619 106.960775,42.9502871 106.957957,43.6807525 C106.95514,44.4112179 106.394435,44.9680481 105.66397,44.9652305 Z M115.527331,50.3731047 C116.257796,50.3759223 116.813922,50.9577588 116.811457,51.6882242 C116.808991,52.4190418 116.247935,52.9970041 115.517469,52.9941865 L109.673394,52.9727022 C108.749218,52.9695324 107.806023,52.4500355 107.810249,51.3543374 C107.811658,50.9242997 107.963809,50.3882494 108.481545,49.8317714 L112.839683,44.9918217 L109.272941,44.9787902 C108.542475,44.9759726 107.98635,44.3934317 107.989167,43.6629663 C107.991633,42.9325009 108.552337,42.3541865 109.283155,42.3570041 L114.869419,42.3777839 C115.986953,42.3820104 116.800186,43.1371299 116.796664,44.1254066 C116.794903,44.619545 116.642048,45.1992682 116.189117,45.6916456 L112.068362,50.3604255 L115.527331,50.3731047 Z M121.169067,46.7630418 L124.563962,46.7753688 C124.567809,45.6578343 124.162777,44.7970544 122.916689,44.7924758 C121.906928,44.7889538 121.281419,45.3235953 121.169067,46.7630418 Z M127.462551,47.087067 C127.457268,48.6124506 126.962425,48.8040481 126.274928,48.8015827 L121.16167,48.7825638 C121.157796,49.8138091 121.562475,50.6960733 123.173796,50.7024129 C123.603834,50.7034695 124.033872,50.6411299 124.420589,50.5780858 C124.9584,50.4942619 125.474727,50.3023122 125.989997,50.3044255 C126.849369,50.3072431 127.234325,50.8675953 127.232211,51.4476707 C127.230098,51.9847777 126.884941,52.3489538 126.432362,52.6053563 C125.636387,53.0530041 124.196236,53.2417839 123.143155,53.2375575 C119.554928,53.2245261 117.95206,50.9193688 117.964035,47.6530544 C117.976714,44.3444758 119.638752,42.1805512 122.926199,42.1928783 C126.363683,42.2059097 127.47206,44.5948909 127.462551,47.087067 Z M136.363945,45.078745 C135.740548,45.2051852 134.986838,45.6320531 134.426838,46.0384934 L134.410636,50.4427701 L135.764146,50.4480531 C136.494611,50.4508707 137.051089,51.0327072 137.048624,51.7631726 C137.046158,52.4939902 136.48475,53.0719525 135.754284,53.0691349 L129.845756,53.0472984 C129.115291,53.044833 128.558813,52.44116 128.56163,51.7106946 C128.564096,50.9802292 129.125152,50.4237512 129.855618,50.4262166 L131.230964,50.4311475 L131.250335,45.0597261 L129.918309,45.0551475 C129.187844,45.0523299 128.631014,44.4912733 128.633831,43.7608078 C128.636649,43.0306946 129.197706,42.4305437 129.928523,42.4333613 L132.527769,42.4432229 C133.000775,42.4446317 133.386083,42.7901412 133.492096,43.1986946 L133.618888,43.6720531 C134.739945,42.8165563 136.181152,42.2417638 137.384272,42.2463424 C138.308448,42.2498644 138.951215,42.7246317 139.01285,43.4558016 L139.197756,45.7768078 C139.259039,46.6146946 138.612397,47.2141412 137.881932,47.2116758 C137.044045,47.208506 136.637253,46.6911223 136.532649,46.0677261 L136.363945,45.078745 Z M145.926702,50.4855978 C146.657167,50.4884154 147.213293,51.0702519 147.210828,51.8007173 C147.208362,52.5315349 146.647306,53.1094972 145.91684,53.1066795 L140.00796,53.0851953 C139.277494,53.0823777 138.721369,52.500189 138.724186,51.7697236 C138.726652,51.038906 139.287356,50.4612959 140.018174,50.4637613 L141.393167,50.4690443 L141.431557,40.0054972 L140.099532,40.0002141 C139.369067,39.9977487 138.812589,39.4366921 138.815406,38.7062267 C138.817872,37.9754091 139.378576,37.3763148 140.109042,37.3791324 L143.332035,37.3911072 C144.062501,37.3939248 144.618979,37.9972456 144.616161,38.7065789 L144.57284,50.480667 L145.926702,50.4855978 Z M153.727044,50.0202343 L153.73127,48.9030519 L152.18405,48.8974166 C151.238742,48.8938946 150.722063,49.1925613 150.719597,49.7941211 C150.717484,50.3956808 151.210214,50.7415424 151.941031,50.74436 C152.58556,50.7468255 153.188176,50.4692909 153.727044,50.0202343 Z M156.920101,46.3791777 L156.90883,49.49475 C156.904252,50.6982217 157.181786,51.2578695 157.179673,51.8375927 C157.176503,52.6110267 156.701384,53.2971148 155.734591,53.2935927 C154.853736,53.2904229 154.425811,52.7300707 154.320151,52.3433538 L154.213786,51.9559324 C153.264956,52.9621714 152.167497,53.3450141 151.071799,53.3411399 C148.901887,53.3326871 147.618113,51.8456934 147.625157,50.0195299 C147.632553,47.9352028 149.312906,46.759555 152.062893,46.7697688 L153.739019,46.7757563 L153.740428,46.3460707 C153.743245,45.6370896 153.530868,44.9059198 152.134742,44.9006368 C151.898063,44.8995802 151.554314,44.92036 151.123925,45.0256682 C150.672403,45.1316808 150.091975,45.3014418 149.662289,45.2996808 C148.802918,45.296511 148.374994,44.671706 148.377459,44.0271777 C148.378516,43.6404607 148.531019,43.2544481 149.111799,42.9342972 C149.887346,42.5074292 151.306013,42.2978695 152.466516,42.3020959 C156.527044,42.3172405 156.925736,44.8967626 156.920101,46.3791777 Z M164.969625,42.348516 C167.483638,42.3576733 168.896669,43.6520129 168.886103,46.5094217 L168.866732,51.7522896 C168.863562,52.6546292 168.1736,53.3396607 167.270908,53.3361387 C166.347084,53.3326166 165.683185,52.6430066 165.686707,51.740667 L165.706078,46.497799 C165.711009,45.1657739 165.067185,44.9484657 164.229298,44.9452959 C163.692191,44.9431827 163.003286,45.2629814 162.529223,45.6697739 L162.507034,51.7290443 C162.503512,52.6310317 161.81355,53.3160632 160.91121,53.3128934 C160.00887,53.3093714 159.323839,52.6194091 159.327009,51.7174217 L159.347436,46.2167424 C159.352015,45.0132707 159.074481,44.518428 159.076946,43.9383525 C159.079411,43.1215978 159.512267,42.4143777 160.500191,42.4178997 C161.359562,42.4210695 161.766355,42.8091953 161.936468,43.3684909 L162.042128,43.7340758 C162.991663,42.7278368 164.196191,42.3456984 164.969625,42.348516 Z M177.187311,50.1072632 L177.205273,45.294433 C176.732971,45.056345 176.045826,44.9890745 175.680594,44.9876657 C174.327084,44.9827349 173.829072,46.0337034 173.821675,47.924672 C173.814984,49.7934519 174.391537,50.8275148 175.487235,50.831389 C176.02399,50.8335022 176.712543,50.5351877 177.187311,50.1072632 Z M180.369097,49.5817789 C180.364518,50.7852506 180.642053,51.2800934 180.63994,51.8605211 C180.63677,52.6769236 180.204619,53.3841437 179.216342,53.3806217 C178.356619,53.3770997 177.950179,52.9674896 177.780418,52.408194 L177.674053,52.0426091 C176.725223,53.0492003 175.649248,53.4316909 174.746908,53.4288733 C172.684418,53.4207726 170.605726,51.8020556 170.620166,47.9130494 C170.632845,44.6041185 172.317072,42.3757412 175.647135,42.3880682 C176.141273,42.3898292 176.69916,42.5634644 177.21443,42.7374519 L177.228518,38.9562192 C177.23204,38.0535273 177.900166,37.3688481 178.82399,37.3723701 C179.726682,37.3755399 180.411713,38.0655022 180.408543,38.9678418 L180.369097,49.5817789 Z" id="Combined-Shape" fill="#F24963"></path>
                <path d="M93.8621283,40.9035751 C94.8507572,40.9074494 95.6266566,40.1364808 95.6305308,39.1485563 C95.6337006,38.1599273 94.8637887,37.384028 93.8751597,37.3801538 C92.8865308,37.3762795 92.1102792,38.1468959 92.1071094,39.1351726 C92.1032352,40.1234494 92.8734994,40.8997009 93.8621283,40.9035751" id="Fill-32" fill="#E5174D"></path>
                <path d="M21.6671748,45.9682292 C21.6633006,45.4529588 21.662244,44.8686569 21.662244,44.1219902 C21.662244,42.5930846 19.2922818,42.5930846 19.2922818,44.1219902 C19.2922818,44.895072 19.2929862,45.4941663 19.2975648,46.0224682 C18.8034264,46.0259902 18.2423698,46.0266946 17.5372629,46.0266946 C16.0087094,46.0266946 16.0087094,48.3966569 17.5372629,48.3966569 C18.2708981,48.3966569 18.848156,48.3956003 19.3563824,48.3924305 C19.3775145,48.8869211 19.4042818,49.4490343 19.4402063,50.15555 C19.5180428,51.6752984 21.8887094,51.6830468 21.8105208,50.15555 C21.7731874,49.4215626 21.7450113,48.8443047 21.7242314,48.3360783 C22.2395019,48.314594 22.8238038,48.2867701 23.5708226,48.2487324 C25.0905711,48.1708959 25.0986717,45.8002292 23.5708226,45.8787701 C22.7963321,45.9178644 22.1961811,45.946745 21.6671748,45.9682292 Z" id="Fill-53" fill="#F24963"></path>
                <path d="M37.6424604,8.15805061 C33.2209258,13.016667 34.4501082,18.0372959 34.5046994,18.2486166 C34.5508377,18.4278871 34.687844,18.5701764 34.8653535,18.6230066 C34.9150138,18.637799 34.9657308,18.6451953 35.0164478,18.6451953 C35.1464101,18.6451953 35.2735547,18.5972959 35.3721711,18.5071324 C41.6536805,12.7799877 38.4937308,8.24891854 38.4609761,8.20383677 C38.3676428,8.07528332 38.221127,7.99498143 38.0626365,7.9861764 C37.8999195,7.98054118 37.7491774,8.04076759 37.6424604,8.15805061 Z" id="Fill-55" fill="#F24963"></path>
            </g>
        </g>
    </g>
</svg>