<?xml version="1.0" encoding="UTF-8"?>
<svg width="14px" height="18px" viewBox="0 0 14 18" version="1.1" xmlns="http://www.w3.org/2000/svg" xmlns:xlink="http://www.w3.org/1999/xlink">
    <!-- Generator: Sketch 52.5 (67469) - http://www.bohemiancoding.com/sketch -->
    <title>placeholder-filled-point</title>
    <desc>Created with Sketch.</desc>
    <g id="design" stroke="none" stroke-width="1" fill="none" fill-rule="evenodd">
        <g id="tjs-job-mobile" transform="translate(-139.000000, -220.000000)" fill="#9393A5" fill-rule="nonzero">
            <g id="placeholder-filled-point" transform="translate(139.000000, 220.000000)">
                <path d="M6.76928571,0 C3.12630612,0 0.162183673,2.96412245 0.162183673,6.60746939 C0.162183673,7.55779592 0.356693878,8.46514286 0.740020408,9.30453061 C2.39197959,12.9194082 5.5592449,16.7359592 6.49083673,17.819449 C6.56063265,17.900449 6.66238776,17.947102 6.76946939,17.947102 C6.87655102,17.947102 6.97830612,17.900449 7.04810204,17.819449 C7.97932653,16.7361429 11.1465918,12.9197755 12.799102,9.30453061 C13.1826122,8.46514286 13.3769388,7.55779592 13.3769388,6.60746939 C13.3765714,2.96412245 10.412449,0 6.76928571,0 Z M6.76928571,10.0394082 C4.87689796,10.0394082 3.33716327,8.49967347 3.33716327,6.60728571 C3.33716327,4.71471429 4.87689796,3.17497959 6.76928571,3.17497959 C8.66167347,3.17497959 10.2014082,4.71471429 10.2014082,6.60728571 C10.2015918,8.49967347 8.66185714,10.0394082 6.76928571,10.0394082 Z" id="Shape"></path>
            </g>
        </g>
    </g>
</svg>