<?xml version="1.0" encoding="UTF-8"?>
<svg width="15px" height="15px" viewBox="0 0 15 15" version="1.1" xmlns="http://www.w3.org/2000/svg" xmlns:xlink="http://www.w3.org/1999/xlink">
    <!-- Generator: Sketch 52.5 (67469) - http://www.bohemiancoding.com/sketch -->
    <title>Group 6</title>
    <desc>Created with Sketch.</desc>
    <g id="design" stroke="none" stroke-width="1" fill="none" fill-rule="evenodd">
        <g id="tjs-job-mobile" transform="translate(-22.000000, -251.000000)">
            <g id="Group-6" transform="translate(22.000000, 251.000000)">
                <path d="M7.10900474e-05,3.27014218 C7.10900474e-05,1.50611374 1.43509479,0.0710900474 3.19912322,0.0710900474 C4.96315166,0.0710900474 6.39817536,1.50611374 6.39817536,3.27014218 C6.39817536,5.03417062 4.96315166,6.46919431 3.19912322,6.46919431 C1.43509479,6.46919431 7.10900474e-05,5.03417062 7.10900474e-05,3.27014218 Z M3.19912322,2.20379147 C2.61078199,2.20379147 2.13277251,2.68180095 2.13277251,3.27014218 C2.13277251,3.85848341 2.61078199,4.33649289 3.19912322,4.33649289 C3.78746445,4.33649289 4.26547393,3.85848341 4.26547393,3.27014218 C4.26547393,2.68180095 3.78746445,2.20379147 3.19912322,2.20379147 Z" id="Combined-Shape" fill="#9393A5" fill-rule="nonzero"></path>
                <path d="M4.08632701,14.5251896 C3.76464455,15.0083886 3.10585308,15.1512796 2.60758294,14.8209242 C2.1171327,14.49391 1.98483412,13.8327014 2.31184834,13.3421801 L10.842654,0.545971564 C11.1676066,0.055450237 11.8288863,-0.0778436019 12.3213981,0.250236967 C12.8118483,0.577251185 12.9441469,1.23845972 12.6171327,1.72898104 L4.08632701,14.5251896 Z" id="Path" fill="#9393A5" fill-rule="nonzero"></path>
                <path d="M11.7299289,15 C9.96590047,15 8.53087678,13.5649763 8.53087678,11.8009479 C8.53087678,10.0369194 9.96590047,8.60189573 11.7299289,8.60189573 C13.4939573,8.60189573 14.928981,10.0369194 14.928981,11.8009479 C14.928981,13.5649763 13.4939573,15 11.7299289,15 Z M11.7299289,10.7345972 C11.1415877,10.7345972 10.6635782,11.2126066 10.6635782,11.8009479 C10.6635782,12.3892891 11.1415877,12.8672986 11.7299289,12.8672986 C12.3182701,12.8672986 12.7962796,12.3892891 12.7962796,11.8009479 C12.7962796,11.2126066 12.3182701,10.7345972 11.7299289,10.7345972 Z" id="Combined-Shape" fill="#9393A5" fill-rule="nonzero"></path>
                <g id="discount" transform="translate(8.530806, 10.734597)"></g>
            </g>
        </g>
    </g>
</svg>